name analog
datacolumns 19
datarows 46
range 0.582 0.6045
endheader
time	ground_force_vx	ground_force_vy	ground_force_vz	ground_force_px	ground_force_py	ground_force_pz	l_ground_force_vx	l_ground_force_vy	l_ground_force_vz	l_ground_force_px	l_ground_force_py	l_ground_force_pz	ground_torque_x	ground_torque_y	ground_torque_z	l_ground_torque_x	l_ground_torque_y	l_ground_torque_z
0.582	-0.0	-0.0	-0.0	-0.0	-0.0	-0.0	-0.3590081632137298	5.653417110443115	-644.906005859375	-0.0	-0.0	-0.0	-0.0	-0.0	-0.0	190272.984375	-12597.94921875	-1601.5133056640625
0.5825	-0.0	-0.0	-0.0	-0.0	-0.0	-0.0	-0.0878005176782608	4.86131763458252	-645.9376831054688	-0.0	-0.0	-0.0	-0.0	-0.0	-0.0	189529.125	-12639.2734375	-1423.310546875
0.583	-0.0	-0.0	-0.0	-0.0	-0.0	-0.0	0.1764480173587799	4.062797546386719	-645.5736083984375	-0.0	-0.0	-0.0	-0.0	-0.0	-0.0	189371.421875	-12623.5185546875	-1215.068359375
0.5835	-0.0	-0.0	-0.0	-0.0	-0.0	-0.0	0.4425100684165954	3.272059440612793	-644.5133666992188	-0.0	-0.0	-0.0	-0.0	-0.0	-0.0	188428.703125	-12377.7099609375	-1037.793701171875
0.584	-0.0	-0.0	-0.0	-0.0	-0.0	-0.0	0.176300436258316	2.0358636379241943	-641.7230834960938	-0.0	-0.0	-0.0	-0.0	-0.0	-0.0	187967.109375	-12102.3291015625	-1125.46630859375
0.5845	-0.0	-0.0	-0.0	-0.0	-0.0	-0.0	0.5310801267623901	1.1517200469970703	-639.6644287109375	-0.0	-0.0	-0.0	-0.0	-0.0	-0.0	187351.84375	-12023.548828125	-1037.9671630859375
0.585	-0.0	-0.0	-0.0	-0.0	-0.0	-0.0	0.5284791588783264	0.5299301147460938	-638.947509765625	-0.0	-0.0	-0.0	-0.0	-0.0	-0.0	187182.9375	-12024.6513671875	-828.81689453125
0.5855	-0.0	-0.0	-0.0	-0.0	-0.0	-0.0	1.41937255859375	-0.262326180934906	-637.2068481445312	-0.0	-0.0	-0.0	-0.0	-0.0	-0.0	186442.953125	-12148.611328125	-593.6673583984375
0.586	-0.0	-0.0	-0.0	-0.0	-0.0	-0.0	1.5995851755142212	-1.0598602294921875	-636.4979248046875	-0.0	-0.0	-0.0	-0.0	-0.0	-0.0	185890.5625	-12142.39453125	-474.222900390625
0.5865	-0.0	-0.0	-0.0	-0.0	-0.0	-0.0	1.1561858654022217	-1.3277579545974731	-634.7518920898438	-0.0	-0.0	-0.0	-0.0	-0.0	-0.0	185503.828125	-11935.7333984375	-592.3033447265625
0.587	-0.0	-0.0	-0.0	-0.0	-0.0	-0.0	1.0676015615463257	-1.9461357593536377	-633.0360107421875	-0.0	-0.0	-0.0	-0.0	-0.0	-0.0	185205.5	-12057.537109375	-651.830322265625
0.5875	-0.0	-0.0	-0.0	-0.0	-0.0	-0.0	0.7128983736038208	-2.558130979537964	-631.2913818359375	-0.0	-0.0	-0.0	-0.0	-0.0	-0.0	184511.859375	-12183.5439453125	-595.0347900390625
0.588	-0.0	-0.0	-0.0	-0.0	-0.0	-0.0	0.2694990038871765	-2.829645872116089	-630.2053833007812	-0.0	-0.0	-0.0	-0.0	-0.0	-0.0	184200.859375	-12044.5048828125	-771.7921752929688
0.5885	-0.0	-0.0	-0.0	-0.0	-0.0	-0.0	-0.1739280074834823	-2.919832944869995	-630.9169921875	-0.0	-0.0	-0.0	-0.0	-0.0	-0.0	184011.046875	-12124.8515625	-891.3706665039062
0.589	-0.0	-0.0	-0.0	-0.0	-0.0	-0.0	-0.2606602311134338	-3.001121282577514	-629.8838500976562	-0.0	-0.0	-0.0	-0.0	-0.0	-0.0	184009.578125	-12127.5673828125	-1097.29736328125
0.5895	-0.0	-0.0	-0.0	-0.0	-0.0	-0.0	-0.6190810799598694	-2.985962390899658	-630.240966796875	-0.0	-0.0	-0.0	-0.0	-0.0	-0.0	184069.359375	-11975.2177734375	-1068.470703125
0.59	-0.0	-0.0	-0.0	-0.0	-0.0	-0.0	-1.1454086303710938	-2.3788375854492188	-629.877197265625	-0.0	-0.0	-0.0	-0.0	-0.0	-0.0	184234.859375	-12116.9482421875	-1333.6817626953125
0.5905	-0.0	-0.0	-0.0	-0.0	-0.0	-0.0	-1.0624942779541016	-2.2060158252716064	-630.56787109375	-0.0	-0.0	-0.0	-0.0	-0.0	-0.0	184158.078125	-11826.5625	-1452.812255859375
0.591	-0.0	-0.0	-0.0	-0.0	-0.0	-0.0	-1.415175437927246	-2.55715012550354	-629.8612670898438	-0.0	-0.0	-0.0	-0.0	-0.0	-0.0	184315.109375	-11786.7783203125	-1367.6053466796875
0.5915	-0.0	-0.0	-0.0	-0.0	-0.0	-0.0	-1.41937255859375	-2.475166320800781	-630.1845092773438	-0.0	-0.0	-0.0	-0.0	-0.0	-0.0	184307.59375	-11894.787109375	-1575.28271484375
0.592	-0.0	-0.0	-0.0	-0.0	-0.0	-0.0	-1.5125752687454224	-3.345043420791626	-631.5798950195312	-0.0	-0.0	-0.0	-0.0	-0.0	-0.0	183909.484375	-11671.0625	-1628.94140625
0.5925	-0.0	-0.0	-0.0	-0.0	-0.0	-0.0	-2.038038492202759	-3.883854866027832	-630.1913452148438	-0.0	-0.0	-0.0	-0.0	-0.0	-0.0	184315.828125	-11651.302734375	-1662.849853515625
0.593	-0.0	-0.0	-0.0	-0.0	-0.0	-0.0	-2.119511842727661	-4.509158611297607	-632.285400390625	-0.0	-0.0	-0.0	-0.0	-0.0	-0.0	184162.453125	-11993.5546875	-1691.9068603515625
0.5935	-0.0	-0.0	-0.0	-0.0	-0.0	-0.0	-2.294197797775269	-5.82189416885376	-633.661865234375	-0.0	-0.0	-0.0	-0.0	-0.0	-0.0	184043.5	-12062.51171875	-1635.4542236328125
0.594	-0.0	-0.0	-0.0	-0.0	-0.0	-0.0	-2.212730407714844	-6.874040126800537	-632.672607421875	-0.0	-0.0	-0.0	-0.0	-0.0	-0.0	184346.515625	-12176.1708984375	-1663.663330078125
0.5945	-0.0	-0.0	-0.0	-0.0	-0.0	-0.0	-2.6431453227996826	-7.255305767059326	-634.3675537109375	-0.0	-0.0	-0.0	-0.0	-0.0	-0.0	184249.96875	-12327.755859375	-1575.916748046875
0.595	-0.0	-0.0	-0.0	-0.0	-0.0	-0.0	-2.13171911239624	-8.050517082214355	-634.7158203125	-0.0	-0.0	-0.0	-0.0	-0.0	-0.0	184748.390625	-12583.5185546875	-1519.9854736328125
0.5955	-0.0	-0.0	-0.0	-0.0	-0.0	-0.0	-1.965289831161499	-9.086259841918944	-635.7943115234375	-0.0	-0.0	-0.0	-0.0	-0.0	-0.0	185074.421875	-12856.0439453125	-1461.80908203125
0.596	-0.0	-0.0	-0.0	-0.0	-0.0	-0.0	-2.0291171073913574	-9.182660102844238	-635.1399536132812	-0.0	-0.0	-0.0	-0.0	-0.0	-0.0	185153.625	-12874.3173828125	-1577.8475341796875
0.5965	-0.0	-0.0	-0.0	-0.0	-0.0	-0.0	-2.383708477020264	-9.535883903503418	-636.1655883789062	-0.0	-0.0	-0.0	-0.0	-0.0	-0.0	185233.609375	-13231.6083984375	-1576.3116455078125
0.597	-0.0	-0.0	-0.0	-0.0	-0.0	-0.0	-2.930403709411621	-9.444550514221191	-637.9000244140625	-0.0	-0.0	-0.0	-0.0	-0.0	-0.0	185685.328125	-13210.908203125	-1780.382568359375
0.5975	-0.0	-0.0	-0.0	-0.0	-0.0	-0.0	-2.5877039432525635	-9.362098693847656	-638.9356079101562	-0.0	-0.0	-0.0	-0.0	-0.0	-0.0	185949.9375	-13653.25390625	-1900.6983642578125
0.598	-0.0	-0.0	-0.0	-0.0	-0.0	-0.0	-2.844907760620117	-9.526471138000488	-640.283447265625	-0.0	-0.0	-0.0	-0.0	-0.0	-0.0	186356.0	-13789.5791015625	-1903.9720458984373
0.5985	-0.0	-0.0	-0.0	-0.0	-0.0	-0.0	-2.04666519165039	-9.459854125976562	-641.74072265625	-0.0	-0.0	-0.0	-0.0	-0.0	-0.0	186619.71875	-14545.1865234375	-1841.97265625
0.599	-0.0	-0.0	-0.0	-0.0	-0.0	-0.0	-2.135516166687012	-9.270562171936035	-643.1500244140625	-0.0	-0.0	-0.0	-0.0	-0.0	-0.0	187268.03125	-15021.3330078125	-1955.2225341796875
0.5995	-0.0	-0.0	-0.0	-0.0	-0.0	-0.0	-1.6822131872177124	-9.712108612060549	-646.5380859375	-0.0	-0.0	-0.0	-0.0	-0.0	-0.0	187561.359375	-15525.431640625	-1665.9503173828125
0.6	-0.0	-0.0	-0.0	-0.0	-0.0	-0.0	-0.9005836844444275	-9.637125968933104	-647.985595703125	-0.0	-0.0	-0.0	-0.0	-0.0	-0.0	187898.328125	-16216.142578125	-1546.7451171875
0.6005	-0.0	-0.0	-0.0	-0.0	-0.0	-0.0	-0.6003843545913696	-9.813957214355469	-646.9779052734375	-0.0	-0.0	-0.0	-0.0	-0.0	-0.0	188227.453125	-16794.734375	-1285.35888671875
0.601	-0.0	-0.0	-0.0	-0.0	-0.0	-0.0	0.6921406984329224	-10.40449047088623	-648.6961059570312	-0.0	-0.0	-0.0	-0.0	-0.0	-0.0	188390.765625	-17420.84765625	-1185.1920166015625
0.6015	-0.0	-0.0	-0.0	-0.0	-0.0	-0.0	0.9865562915802002	-10.50671672821045	-648.4027099609375	-0.0	-0.0	-0.0	-0.0	-0.0	-0.0	188074.03125	-17869.97265625	-1011.7412719726562
0.602	-0.0	-0.0	-0.0	-0.0	-0.0	-0.0	1.2455930709838867	-11.276166915893556	-650.5411376953125	-0.0	-0.0	-0.0	-0.0	-0.0	-0.0	188236.671875	-18262.265625	-920.3455810546876
0.6025	-0.0	-0.0	-0.0	-0.0	-0.0	-0.0	1.578197360038757	-12.353926658630373	-650.1788940429688	-0.0	-0.0	-0.0	-0.0	-0.0	-0.0	188306.953125	-18529.90234375	-891.9367065429688
0.603	-0.0	-0.0	-0.0	-0.0	-0.0	-0.0	1.168370008468628	-13.0753755569458	-651.5765380859375	-0.0	-0.0	-0.0	-0.0	-0.0	-0.0	188198.90625	-18511.271484375	-657.6287841796875
0.6035	-0.0	-0.0	-0.0	-0.0	-0.0	-0.0	0.6517935395240784	-14.477086067199709	-649.7711181640625	-0.0	-0.0	-0.0	-0.0	-0.0	-0.0	187763.96875	-19051.3984375	-743.5264892578125
0.604	-0.0	-0.0	-0.0	-0.0	-0.0	-0.0	0.8792487978935242	-15.356236457824709	-648.0563354492188	-0.0	-0.0	-0.0	-0.0	-0.0	-0.0	187271.578125	-18814.25	-804.2042846679688
0.6045	-0.0	-0.0	-0.0	-0.0	-0.0	-0.0	0.8831151723861694	-16.259140014648438	-647.6605834960938	-0.0	-0.0	-0.0	-0.0	-0.0	-0.0	186360.546875	-18943.65234375	-862.423828125
